<svg viewBox="0 0 2291.57 559.15" xmlns="http://www.w3.org/2000/svg" data-name="图层 2" id="_图层_2">
  <defs>
    <style>
      .cls-1 {
        fill: #13a1bb;
        stroke-width: 0px;
      }
    </style>
  </defs>
  <g data-name="图层 1" id="_图层_1-2">
    <g>
      <path d="M792.07,553.74c-7.07-3.61-12.83-8.74-17.27-15.4l9.15-10.4c8.04,11.93,18.52,17.89,31.42,17.89,18.03,0,27.05-10.68,27.05-32.04v-88.22h-53.26v-13.32h68.45v100.91c0,15.26-3.57,26.74-10.72,34.43-7.15,7.7-17.72,11.55-31.73,11.55-8.32,0-16.02-1.8-23.1-5.41Z" class="cls-1"></path>
      <path d="M1004.65,519h-81.15l-17.48,38.91h-16.02l66.58-145.64h15.19l66.58,145.64h-16.23l-17.48-38.91ZM999.03,506.51l-34.95-78.23-34.96,78.23h69.91Z" class="cls-1"></path>
      <path d="M1175.93,425.58c10.54,8.88,15.81,21.09,15.81,36.62s-5.27,27.71-15.81,36.52c-10.54,8.81-25.11,13.21-43.69,13.21h-39.12v45.98h-15.4v-145.64h54.51c18.59,0,33.15,4.44,43.69,13.32ZM1164.9,488.93c7.63-6.31,11.44-15.22,11.44-26.74s-3.82-20.84-11.44-27.15c-7.63-6.31-18.66-9.47-33.08-9.47h-38.7v72.82h38.7c14.42,0,25.45-3.15,33.08-9.47Z" class="cls-1"></path>
      <path d="M1321.98,519h-81.15l-17.48,38.91h-16.02l66.58-145.64h15.19l66.58,145.64h-16.23l-17.48-38.91ZM1316.37,506.51l-34.95-78.23-34.96,78.23h69.91Z" class="cls-1"></path>
      <path d="M1516.77,412.26v145.64h-12.69l-93.63-118.18v118.18h-15.4v-145.64h12.69l93.84,118.18v-118.18h15.19Z" class="cls-1"></path>
    </g>
    <g>
      <path d="M2238.11,4.02c71.47-1.54,71.1,110.91,0,109.78-70.78.86-71.05-110.95,0-109.78M2238.14,14.08c-58.27-1.17-58.18,90.45-.14,89.66,58.45,1.2,58.53-90.73.14-89.66M2214.98,27.67c11.02.48,35.37-2.07,43.58,4.4,11.45,7.27,7.25,26.51-6.13,29.22l13.36,26.51h-18.21l-11.31-23.94h-4.77v23.94h-16.52V27.67ZM2231.5,38.02v16.08c22.28,3.54,22.38-19.41,0-16.08" class="cls-1"></path>
      <path d="M231.11,23.63c171.22,103.53,1.43,341.14-159.77,242.74-170.6-103.39-2.18-341.9,159.77-242.74M98.74,89.19c-70.34,67.35,35.16,184.42,105.4,111.2,69.72-68.41-35.02-183.98-105.4-111.2" class="cls-1"></path>
      <polygon points="333.53 6.61 407.8 6.61 407.8 222.81 494.54 222.81 494.54 283.39 333.53 283.39 333.53 6.61" class="cls-1"></polygon>
      <path d="M520.62,6.61c113.47-6.06,239.09-.91,244.41,138.19-7.49,142.41-130.79,143.66-244.41,138.59V6.61ZM609.01,219.9c117.97,5.69,98.12-173.15-14.11-151.04v151.04h14.11Z" class="cls-1"></path>
      <path d="M1119.34,23.63c171.23,103.55,1.41,341.13-159.78,242.74-170.59-103.39-2.18-341.9,159.78-242.74M986.97,89.19c-70.35,67.35,35.15,184.42,105.4,111.2,69.72-68.42-35.02-183.97-105.4-111.2" class="cls-1"></path>
      <path d="M1221.76,6.61c34.59,1.7,126-5.48,153.53,8.72,65.99,26.01,67.8,135.8-4.97,155.19l86.31,112.87h-86.31l-74.29-102.08v102.08h-74.27V6.61ZM1315.54,131.93c50.77-2.22,44.88-76.76-19.51-64.32v64.32h19.51Z" class="cls-1"></path>
      <path d="M1475.66,6.61c113.47-6.06,239.09-.91,244.41,138.19-7.49,142.41-130.79,143.66-244.41,138.59V6.61ZM1564.05,219.9c117.97,5.68,98.12-173.15-14.11-151.04v151.04h14.11Z" class="cls-1"></path>
      <polygon points="1751.55 6.61 1917.96 6.61 1917.96 67.61 1825.83 67.61 1825.83 111.18 1903.85 111.18 1903.85 172.18 1825.83 172.18 1825.83 222.81 1917.96 222.81 1917.96 283.39 1751.55 283.39 1751.55 6.61" class="cls-1"></polygon>
      <path d="M1954.42,6.61c34.59,1.7,126.01-5.48,153.54,8.72,65.99,26.01,67.8,135.8-4.97,155.19l86.31,112.87h-86.31l-74.29-102.08v102.08h-74.27V6.61ZM2048.21,131.93c50.77-2.22,44.87-76.77-19.51-64.32v64.32h19.51Z" class="cls-1"></path>
    </g>
  </g>
</svg>